<svg width="26" height="42" viewBox="0 0 26 42" fill="none" xmlns="http://www.w3.org/2000/svg">
<path d="M25.5797 41.2829C25.5761 41.2438 25.212 37.3236 24.0759 32.2549C22.2066 23.9152 19.6878 18.7758 17.8663 15.898V13.3588L19.9539 4.31279C19.9751 4.22092 19.9756 4.12666 19.9575 4.0361L19.9579 4.03602L19.2565 0.528691C19.1951 0.221238 18.9252 0 18.6117 0H16.5073C16.1442 0 15.8497 0.29441 15.8497 0.657645V4.01822C14.8825 4.43289 13.871 5.14221 13.0282 6.34085C13.0219 6.34987 13.0007 6.34996 12.9999 6.34996C12.999 6.34996 12.9779 6.34987 12.9716 6.34085C12.1289 5.14221 11.1176 4.43297 10.1503 4.0183V0.657645C10.1503 0.294492 9.85591 0 9.49268 0H7.38841C7.07497 0 6.80509 0.221238 6.74356 0.528609L6.04203 4.03594L6.04244 4.03602C6.02431 4.12658 6.02481 4.22084 6.04605 4.31271L8.13358 13.3588L8.13367 15.8979C6.31208 18.7757 3.79339 23.9151 1.92406 32.2549C0.787931 37.3236 0.423795 41.2438 0.420186 41.2828C0.403451 41.4669 0.464892 41.6493 0.589498 41.7858C0.714103 41.9222 0.890306 41.9999 1.07512 41.9999H24.9249C25.1096 41.9999 25.2859 41.9222 25.4105 41.7858C25.535 41.6494 25.5965 41.4669 25.5797 41.2829ZM17.1649 1.31521H18.0726L18.5019 3.46246C18.1318 3.46795 17.6726 3.50405 17.1648 3.60798V1.31521H17.1649ZM7.92744 1.31521H8.83503V3.60806C8.32734 3.50405 7.86805 3.46795 7.498 3.46254L7.92744 1.31521ZM7.5035 4.77947C8.54481 4.80277 10.514 5.13229 11.8956 7.09734C12.1456 7.45287 12.5584 7.66516 12.9999 7.66516C13.4414 7.66516 13.8541 7.45287 14.1041 7.09734C15.4952 5.11883 17.4573 4.79448 18.4973 4.77578L16.6856 12.6263H9.31434L7.5035 4.77947ZM16.5512 13.9415V15.4321H9.44895V13.9415H16.5512ZM1.80799 40.6848C2.17204 37.585 3.9134 25.1308 9.15381 16.7474H10.129L8.84258 25.1088C8.78737 25.4678 9.03355 25.8036 9.39252 25.8588C9.42648 25.864 9.46011 25.8665 9.49333 25.8665C9.81244 25.8665 10.0925 25.6339 10.1424 25.3089L11.4597 16.7474H12.3423V30.119C12.3423 30.4822 12.6367 30.7766 12.9999 30.7766C13.3631 30.7766 13.6576 30.4822 13.6576 30.119V16.7474H14.5401L15.8572 25.3089C15.9072 25.634 16.1873 25.8665 16.5063 25.8665C16.5396 25.8665 16.5733 25.864 16.6072 25.8588C16.9661 25.8036 17.2124 25.4678 17.1571 25.1088L15.8708 16.7474H16.846C22.0832 25.1259 23.827 37.584 24.1918 40.6848H1.80799Z" fill="#C3C3C3"/>
</svg>
