<svg width="40" height="42" viewBox="0 0 40 42" fill="none" xmlns="http://www.w3.org/2000/svg">
<path d="M28.8065 39.2903H39.2299L36.5541 31.2622C35.8544 29.1629 34.0687 27.6062 31.8935 27.1984L24.742 25.8571V24.2022C26.4552 22.9659 27.6644 21.0826 28.0153 18.9108C29.614 18.6405 30.8388 17.2552 30.8388 15.5806V10.8387C30.8388 4.86252 25.9762 0 20 0C14.0239 0 9.16133 4.86252 9.16133 10.8387V15.5806C9.16133 17.2532 10.38 18.6466 11.976 18.9196C12.3283 21.0915 13.5442 22.9767 15.2581 24.2123V25.8578L8.10592 27.1991C5.9314 27.6069 4.14504 29.1636 3.44527 31.2629L0.770142 39.2903H11.1936V37.9355H9.35169L10.4959 33.3575L9.18166 33.0296L7.95485 37.9355H2.6493L4.73101 31.691C5.27498 30.0585 6.66437 28.8472 8.35588 28.5295L12.671 27.7207L13.7746 32.6848C13.0538 32.9978 12.5484 33.7145 12.5484 34.5484V39.9677C12.5484 41.0882 13.4602 42 14.5807 42H25.4194C26.5399 42 27.4517 41.0882 27.4517 39.9677V34.5484C27.4517 33.7145 26.9463 32.9978 26.2262 32.6848L27.3297 27.7207L31.6449 28.5295C33.3364 28.8472 34.7251 30.0585 35.2698 31.691L37.3508 37.9355H32.0452L30.8184 33.0296L29.5042 33.3575L30.6484 37.9355H28.8065V39.2903ZM25.9972 27.4707L25.0617 31.6802L24.5936 29.8065H21.6353L24.2908 27.151L25.9972 27.4707ZM23.8742 32.5161H16.1259L16.4646 31.1613H23.5355L23.8742 32.5161ZM20 29.526L16.6129 26.1389V24.9968C17.6453 25.4723 18.7909 25.7419 20 25.7419C21.2099 25.7419 22.3548 25.4689 23.3871 24.9934V26.1389L20 29.526ZM28.1291 17.4883V13.6737C28.9156 13.9542 29.4839 14.6993 29.4839 15.5813C29.4839 16.4633 28.9156 17.2078 28.1291 17.4883ZM11.871 17.4971C11.0825 17.2173 10.5162 16.464 10.5162 15.5806C10.5162 14.6973 11.0825 13.944 11.871 13.6642V17.4971ZM10.5162 12.8886V10.8387C10.5162 5.60903 14.7704 1.35484 20 1.35484C25.2297 1.35484 29.4839 5.60903 29.4839 10.8387V12.8886C29.0829 12.5851 28.6195 12.3609 28.1074 12.2599C28.001 11.4599 27.3223 10.8387 26.4938 10.8387C26.0636 10.8387 25.6423 11.0135 25.3036 11.3522C24.1594 12.4964 22.7097 13.2259 21.1395 13.463L21.1828 13.3763C21.2953 13.1501 21.3549 12.8974 21.3549 12.6447V12.474C21.3549 11.5724 20.6212 10.8387 19.7196 10.8387C19.2894 10.8387 18.8681 11.0135 18.5632 11.3176C17.1359 12.7443 15.2425 13.5355 13.2259 13.5484V12.1935H12.5484C11.7829 12.1935 11.0839 12.4584 10.5162 12.8886ZM13.2259 17.6129V14.9032C15.6043 14.8904 17.8384 13.9582 19.5204 12.2762C19.6837 12.1123 20 12.2457 20 12.474V12.6447C20 12.6881 19.9899 12.7314 19.9702 12.7707L18.904 14.9032H20C22.3656 14.9032 24.5889 13.9826 26.2946 12.2762C26.4586 12.1123 26.7742 12.2457 26.7742 12.474V17.6129C26.7742 21.3482 23.7353 24.3871 20 24.3871C16.2648 24.3871 13.2259 21.3482 13.2259 17.6129ZM15.7093 27.151L18.3648 29.8065H15.4065L14.9384 31.6802L14.0029 27.4707L15.7093 27.151ZM14.5807 40.6452C14.2074 40.6452 13.9033 40.3417 13.9033 39.9677V34.5484C13.9033 34.1745 14.2074 33.871 14.5807 33.871H16.6881C15.8068 34.7326 15.2581 35.9317 15.2581 37.2581C15.2581 38.5845 15.8068 39.7835 16.6881 40.6452H14.5807ZM20 40.6452C18.1324 40.6452 16.6129 39.1257 16.6129 37.2581C16.6129 35.3904 18.1324 33.871 20 33.871C21.8677 33.871 23.3871 35.3904 23.3871 37.2581C23.3871 39.1257 21.8677 40.6452 20 40.6452ZM26.0968 39.9677C26.0968 40.3417 25.7927 40.6452 25.4194 40.6452H23.3119C24.1933 39.7835 24.742 38.5845 24.742 37.2581C24.742 35.9317 24.1933 34.7326 23.3119 33.871H25.4194C25.7927 33.871 26.0968 34.1745 26.0968 34.5484V39.9677Z" fill="#C3C3C3"/>
</svg>
