<svg width="22" height="12" viewBox="0 0 22 12" fill="none" xmlns="http://www.w3.org/2000/svg">
<path d="M20.2504 4.59288C20.2416 4.58915 20.2327 4.58586 20.2236 4.58277C20.1132 4.54211 19.997 4.50371 19.8731 4.46845C18.4293 4.05757 15.4319 4.05285 15.305 4.05285H14.6724L13.4255 1.96285C12.8567 1.0141 12.3235 0.5 11.1353 0.5C11.1352 0.5 11.1348 0.5 11.1347 0.5L6.32127 0.500737C5.36844 0.500884 4.4221 1.14208 3.85152 2.17406C3.85 2.17676 3.84853 2.17946 3.84715 2.18221L3.27761 3.2722L1.13182 3.53075C1.12406 3.53168 1.1163 3.53286 1.10859 3.53423C0.424777 3.65852 0 4.16649 0 4.85993V7.47356C0 8.53791 0.892228 9.04813 1.57418 9.23032C1.61995 10.4908 2.659 11.5022 3.93044 11.5022C5.09668 11.5022 6.06729 10.6507 6.25497 9.5368H15.7664C15.9541 10.6507 16.9249 11.5022 18.0915 11.5022C19.2577 11.5022 20.2283 10.6507 20.416 9.5368H21.6071C21.8241 9.5368 22 9.36089 22 9.14394V6.85638C22 6.10514 21.6841 5.13139 20.2504 4.59288ZM20.9671 6.02092L20.0521 6.02112V5.63612C20.0521 5.59113 20.0823 5.49272 20.16 5.4034C20.5238 5.56516 20.7923 5.77023 20.9671 6.02092ZM13.7575 4.05285H5.89546C5.82504 4.05285 5.77475 4.02506 5.75619 3.99751C5.72958 3.95803 5.75079 3.88564 5.76503 3.84759L6.18863 2.96832C6.36379 2.6095 6.62352 2.45643 7.05714 2.45643H12.8051L13.7575 4.05285ZM0.785714 5.20643H1.17911C1.39572 5.20643 1.57197 5.38268 1.57197 5.59929V6.00034H0.785714V5.20643ZM3.93044 10.7165C3.06325 10.7165 2.35773 10.011 2.35773 9.14384C2.35773 8.27681 3.06325 7.57138 3.93044 7.57138C4.79733 7.57138 5.5026 8.27681 5.5026 9.14384C5.5026 10.011 4.79733 10.7165 3.93044 10.7165ZM18.0915 10.7165C17.2243 10.7165 16.5188 10.011 16.5188 9.14384C16.5188 8.27681 17.2243 7.57138 18.0915 7.57138C18.9584 7.57138 19.6636 8.27681 19.6636 9.14384C19.6636 10.011 18.9584 10.7165 18.0915 10.7165ZM21.2143 8.75108H20.416C20.2284 7.63714 19.2578 6.78562 18.0914 6.78562C16.9248 6.78562 15.9539 7.63714 15.7663 8.75108H6.25497C6.06738 7.63714 5.09673 6.78562 3.93039 6.78562C2.87483 6.78562 1.97907 7.48264 1.67912 8.44053C1.31258 8.32547 0.785714 8.05833 0.785714 7.47356V6.78606H1.96483C2.18178 6.78606 2.35768 6.61016 2.35768 6.3932V5.59929C2.35768 4.94945 1.829 4.42072 1.17911 4.42072H0.970259C1.03975 4.36763 1.12878 4.33046 1.23843 4.30929L3.55074 4.03071C3.68736 4.02334 3.81263 3.94482 3.8777 3.82033L4.54133 2.55022C4.97377 1.77065 5.65547 1.2865 6.32137 1.2864L11.1348 1.28567C11.135 1.28567 11.1352 1.28567 11.1354 1.28567C11.6469 1.28567 11.9625 1.39552 12.2432 1.67067H7.05709C6.32097 1.67067 5.79121 1.99124 5.48163 2.62536L5.05067 3.51989C5.04694 3.52765 5.0435 3.53546 5.04026 3.54342C4.91032 3.86541 4.9333 4.18274 5.10484 4.43697C5.27455 4.6884 5.57008 4.83847 5.89541 4.83847H15.305C15.3331 4.83847 17.9542 4.84235 19.3863 5.15644C19.3051 5.32055 19.2664 5.48943 19.2664 5.63607V6.41422C19.2664 6.51847 19.3078 6.61841 19.3815 6.69212C19.4552 6.76573 19.5551 6.80708 19.6592 6.80708C19.6593 6.80708 19.6594 6.80708 19.6595 6.80708L21.2133 6.80654C21.2137 6.82309 21.2142 6.83959 21.2142 6.85638V8.75108H21.2143Z" fill="#333333"/>
<path d="M16.1318 6.02148H5.89554C5.67859 6.02148 5.50269 6.19739 5.50269 6.41435C5.50269 6.63131 5.67859 6.80721 5.89554 6.80721H16.1318C16.3487 6.80721 16.5246 6.63131 16.5246 6.41435C16.5246 6.19734 16.3487 6.02148 16.1318 6.02148Z" fill="#333333"/>
<path d="M4.70059 8.75281C4.48363 8.75281 4.30773 8.92872 4.30773 9.14567C4.30773 9.35393 4.13841 9.52335 3.93024 9.52335C3.72198 9.52335 3.55256 9.35393 3.55256 9.14567C3.55256 8.93751 3.72198 8.76814 3.93024 8.76814C4.1472 8.76814 4.3231 8.59223 4.3231 8.37528C4.3231 8.15832 4.1472 7.98242 3.93024 7.98242C3.28876 7.98242 2.76685 8.50423 2.76685 9.14567C2.76685 9.78716 3.28876 10.3091 3.93024 10.3091C4.57163 10.3091 5.09345 9.78716 5.09345 9.14567C5.09345 8.92872 4.91759 8.75281 4.70059 8.75281Z" fill="#333333"/>
<path d="M18.8616 8.75281C18.6446 8.75281 18.4687 8.92872 18.4687 9.14567C18.4687 9.35393 18.2994 9.52335 18.0913 9.52335C17.883 9.52335 17.7136 9.35393 17.7136 9.14567C17.7136 8.93751 17.883 8.76814 18.0913 8.76814C18.3082 8.76814 18.4841 8.59223 18.4841 8.37528C18.4841 8.15832 18.3082 7.98242 18.0913 7.98242C17.4498 7.98242 16.9279 8.50423 16.9279 9.14567C16.9279 9.78716 17.4498 10.3091 18.0913 10.3091C18.7326 10.3091 19.2545 9.78716 19.2545 9.14567C19.2545 8.92872 19.0786 8.75281 18.8616 8.75281Z" fill="#333333"/>
</svg>
