<svg width="22" height="16" viewBox="0 0 22 16" fill="none" xmlns="http://www.w3.org/2000/svg">
<path d="M20.4287 4.84519H15.3205C15.3076 4.20641 14.7844 3.69067 14.1426 3.69067H12.6395L14.6754 2.65572C14.8072 2.58874 14.8902 2.45341 14.8902 2.30556C14.8902 2.15771 14.8072 2.02238 14.6754 1.95535L11.178 0.177412C11.0661 0.12055 10.9338 0.12055 10.8219 0.177412L7.32458 1.95535C7.19278 2.02238 7.10975 2.15771 7.10975 2.30556C7.10975 2.45341 7.19273 2.58874 7.32458 2.65572L9.36041 3.69067H7.85735C7.21557 3.69067 6.69232 4.20641 6.67945 4.84519H1.57293C0.706502 4.84519 0.00162042 5.55007 0.00162042 6.41651V12.6017L9.82071e-05 12.6653C0 12.6684 0 12.6714 0 12.6745C0 13.6346 0.681901 14.4384 1.58678 14.6273C1.74696 15.3351 2.38059 15.8654 3.13614 15.8654C3.61264 15.8654 4.04048 15.6541 4.33191 15.3207C4.62339 15.6542 5.05133 15.8654 5.52793 15.8654C6.26831 15.8654 6.89193 15.3561 7.06723 14.6694H15.3561C15.5315 15.356 16.1552 15.8654 16.8957 15.8654C17.3722 15.8654 17.8001 15.6541 18.0915 15.3207C18.383 15.6542 18.8109 15.8654 19.2875 15.8654C20.0279 15.8654 20.6515 15.3561 20.8268 14.6694H21.6072C21.8241 14.6694 22 14.4935 22 14.2766V6.41651C22 5.55012 21.2951 4.84519 20.4287 4.84519ZM11 0.968274L13.6305 2.30556L11 3.6428L8.36945 2.30556L11 0.968274ZM21.2143 10.3426H20.5087C20.4828 10.3373 20.456 10.3344 20.4285 10.3344C20.2075 10.3344 20.0277 10.1547 20.0277 9.93365V7.20565H21.2143V10.3426H21.2143ZM7.85735 4.47633H14.1426C14.3511 4.47633 14.5217 4.63979 14.5342 4.84519H7.46575C7.47822 4.63979 7.64886 4.47633 7.85735 4.47633ZM0.787277 7.20565H1.97386V9.93365C1.97386 10.1546 1.79405 10.3344 1.57308 10.3344C1.54558 10.3344 1.51882 10.3372 1.49289 10.3426H0.787277V7.20565ZM3.13614 15.0797C2.83597 15.0797 2.57415 14.9139 2.43632 14.6694H3.83567C3.69784 14.9139 3.43617 15.0797 3.13614 15.0797ZM5.52788 15.0797C5.22771 15.0797 4.96589 14.9139 4.82806 14.6694H6.22741C6.08957 14.9139 5.8279 15.0797 5.52788 15.0797ZM16.8957 15.0797C16.5956 15.0797 16.3337 14.9139 16.1959 14.6694H17.5953C17.4575 14.9139 17.1958 15.0797 16.8957 15.0797ZM19.2875 15.0797C18.9873 15.0797 18.7255 14.9139 18.5877 14.6694H19.987C19.8492 14.9139 19.5875 15.0797 19.2875 15.0797ZM20.4846 13.8837C20.4841 13.8837 20.4837 13.8837 20.4832 13.8837C20.4827 13.8837 20.4823 13.8837 20.4818 13.8837H18.0928C18.0923 13.8837 18.0919 13.8837 18.0914 13.8837C18.0909 13.8837 18.0905 13.8837 18.09 13.8837H15.7011C15.7006 13.8837 15.7002 13.8837 15.6997 13.8837C15.6992 13.8837 15.6987 13.8837 15.6982 13.8837H6.72497C6.72448 13.8837 6.72404 13.8837 6.72355 13.8837C6.72306 13.8837 6.72262 13.8837 6.72213 13.8837H4.33324C4.33275 13.8837 4.33231 13.8837 4.33182 13.8837C4.33132 13.8837 4.33088 13.8837 4.33039 13.8837H1.99488C1.32953 13.8837 0.787964 13.3436 0.785656 12.6788L0.78713 12.6155C0.787179 12.6124 0.787228 12.6093 0.787228 12.6063V12.3288H1.17549C1.39243 12.3288 1.56832 12.1529 1.56832 11.936C1.56832 11.719 1.39243 11.5432 1.17549 11.5432H0.787228V11.1283H1.57303C1.60662 11.1283 1.63922 11.1241 1.67031 11.1162C2.27919 11.0666 2.75947 10.5551 2.75947 9.93369V6.81287C2.75947 6.59593 2.58358 6.42004 2.36664 6.42004H0.787277V6.41656C0.787277 5.98332 1.13974 5.6309 1.57293 5.6309H20.4287C20.8619 5.6309 21.2143 5.98332 21.2143 6.41656V6.42004H19.6349C19.418 6.42004 19.2421 6.59593 19.2421 6.81287V9.93369C19.2421 10.5551 19.7224 11.0666 20.3313 11.1162C20.3624 11.1241 20.395 11.1283 20.4285 11.1283H21.2143V11.5432H20.826C20.6091 11.5432 20.4332 11.719 20.4332 11.936C20.4332 12.1529 20.6091 12.3288 20.826 12.3288H21.2143V13.8838H20.4846V13.8837Z" fill="#333333"/>
<path d="M18.0803 6.41992C18.0758 6.41992 18.0712 6.42002 18.0667 6.42017C18.0621 6.42002 18.0576 6.41992 18.053 6.41992H3.9347C3.71776 6.41992 3.54187 6.59581 3.54187 6.81275V9.93357C3.54187 10.555 4.02215 11.0664 4.63104 11.116C4.66217 11.124 4.69472 11.1282 4.72831 11.1282H17.2867C17.3203 11.1282 17.3529 11.1239 17.384 11.116C17.9929 11.0664 18.4732 10.555 18.4732 9.93357V6.81275C18.4732 6.59581 18.2973 6.41992 18.0803 6.41992ZM17.6875 9.93362C17.6875 10.1546 17.5077 10.3344 17.2867 10.3344C17.2592 10.3344 17.2324 10.3372 17.2065 10.3426H4.8085C4.78262 10.3373 4.75581 10.3344 4.72831 10.3344C4.50734 10.3344 4.32753 10.1546 4.32753 9.93362V7.20563H17.6876V9.93362H17.6875Z" fill="#333333"/>
</svg>
