<svg width="22" height="16" viewBox="0 0 22 16" fill="none" xmlns="http://www.w3.org/2000/svg">
<path d="M21.7201 6.64974L19.6532 5.4229L17.5073 1.18832C17.4099 0.996119 17.2128 0.875 16.9973 0.875H0.571747C0.256005 0.875 0 1.13101 0 1.44675V11.6865C0 11.8381 0.0602393 11.9835 0.167453 12.0908L0.83379 12.7571C0.941004 12.8643 1.08646 12.9245 1.23808 12.9245H2.46135C2.72559 14.1792 3.84086 15.1239 5.17285 15.1239C6.50493 15.1239 7.62015 14.1792 7.88439 12.9245H14.3755C14.6398 14.1792 15.7551 15.1239 17.087 15.1239C18.4191 15.1239 19.5344 14.1792 19.7986 12.9245H20.7619C20.9135 12.9245 21.0589 12.8643 21.1662 12.7571L21.8325 12.0908C21.9398 11.9835 22 11.8382 22 11.6865V7.14135C22 6.93959 21.8936 6.75274 21.7201 6.64974ZM5.17289 13.9805C4.27539 13.9805 3.54529 13.2503 3.54529 12.3528C3.54529 11.4554 4.27543 10.7252 5.17289 10.7252C6.07044 10.7252 6.80059 11.4554 6.80059 12.3528C6.80059 13.2503 6.0704 13.9805 5.17289 13.9805ZM17.087 13.9805C16.1897 13.9805 15.4596 13.2506 15.4594 12.3531C15.4594 12.353 15.4594 12.3529 15.4594 12.3528C15.4594 12.3528 15.4594 12.3527 15.4594 12.3525C15.4596 11.4552 16.1897 10.7251 17.087 10.7251C17.9846 10.7251 18.7147 11.4553 18.7147 12.3528C18.7147 13.2503 17.9846 13.9805 17.087 13.9805ZM20.8565 11.4498L20.525 11.7812H19.7986C19.5344 10.5265 18.4191 9.58175 17.087 9.58175C15.755 9.58175 14.6398 10.5266 14.3755 11.7812H7.88444C7.6202 10.5265 6.50493 9.58175 5.17285 9.58175C3.84081 9.58175 2.72559 10.5266 2.46135 11.7812H1.47492L1.14349 11.4498V2.01854H16.6461L18.7085 6.08814C18.7575 6.18502 18.8333 6.26593 18.9267 6.32137L20.8566 7.46692V11.4498H20.8565Z" fill="#333333"/>
<path d="M9.7895 2.97852H7.46103C7.14524 2.97852 6.88928 3.23452 6.88928 3.55026V6.33636C6.88928 6.48813 6.94961 6.63367 7.05701 6.74093C7.16422 6.84801 7.30954 6.90811 7.46103 6.90811C7.4613 6.90811 7.46158 6.90811 7.46181 6.90811L9.79028 6.90495C10.1057 6.90454 10.3612 6.64867 10.3612 6.33321V3.55026C10.3612 3.23448 10.1052 2.97852 9.7895 2.97852ZM9.21776 5.76224L8.03278 5.76384V4.12196H9.21776V5.76224Z" fill="#333333"/>
<path d="M5.52473 2.97852H3.19626C2.88052 2.97852 2.62451 3.23452 2.62451 3.55026V6.33636C2.62451 6.48813 2.68484 6.63367 2.79224 6.74093C2.89945 6.84801 3.04477 6.90811 3.19626 6.90811C3.19653 6.90811 3.19681 6.90811 3.19704 6.90811L5.52551 6.90495C5.84098 6.90454 6.09648 6.64867 6.09648 6.33321V3.55026C6.09648 3.23448 5.84052 2.97852 5.52473 2.97852ZM4.95299 5.76224L3.76801 5.76384V4.12196H4.95299V5.76224Z" fill="#333333"/>
<path d="M15.8645 3.2949C15.7678 3.10105 15.5698 2.97852 15.353 2.97852H11.859C11.5432 2.97852 11.2872 3.23452 11.2872 3.55026V6.3365C11.2872 6.48822 11.3476 6.63376 11.4549 6.74098C11.5621 6.8481 11.7074 6.90825 11.859 6.90825C11.8592 6.90825 11.8593 6.90825 11.8596 6.90825L16.7421 6.90335C16.9401 6.90317 17.1239 6.80053 17.228 6.63207C17.332 6.46361 17.3415 6.25335 17.2531 6.0762L15.8645 3.2949ZM12.4307 5.76416V4.12206H14.9994L15.8175 5.76077L12.4307 5.76416Z" fill="#333333"/>
</svg>
