<svg width="127" height="127" viewBox="0 0 127 127" fill="none" xmlns="http://www.w3.org/2000/svg">
<circle cx="63.5001" cy="63.5" r="63.5" fill="#F4F4F4"/>
<path fill-rule="evenodd" clip-rule="evenodd" d="M59.8901 60.14C59.0301 61.5 58.6001 62.64 58.6001 63.56C58.6001 64.72 59.3201 65.3 60.7601 65.3C61.4801 65.3 61.9801 65.56 62.2601 66.08C62.5401 66.6 62.6801 67.2 62.6801 67.88C62.6801 68.72 62.3301 69.46 61.6301 70.1C60.9301 70.74 60.1201 71.06 59.2001 71.06C57.8001 71.06 56.7501 70.63 56.0501 69.77C55.3501 68.91 55.0001 67.68 55.0001 66.08C55.0001 64.08 55.6801 62.19 57.0401 60.41C58.4001 58.63 59.9201 57.16 61.6001 56L62.7401 56.66C61.7001 57.62 60.7501 58.78 59.8901 60.14ZM69.8501 60.14C68.9901 61.5 68.5601 62.64 68.5601 63.56C68.5601 64.72 69.2801 65.3 70.7201 65.3C71.4401 65.3 71.9401 65.56 72.2201 66.08C72.5001 66.6 72.6401 67.2 72.6401 67.88C72.6401 68.72 72.2901 69.46 71.5901 70.1C70.8901 70.74 70.0801 71.06 69.1601 71.06C67.7601 71.06 66.7101 70.63 66.0101 69.77C65.3101 68.91 64.9601 67.68 64.9601 66.08C64.9601 64.08 65.6401 62.19 67.0001 60.41C68.3601 58.63 69.8801 57.16 71.5601 56L72.7001 56.66C71.6601 57.62 70.7101 58.78 69.8501 60.14Z" fill="#141201"/>
</svg>
