<svg width="127" height="127" viewBox="0 0 127 127" fill="none" xmlns="http://www.w3.org/2000/svg">
<circle cx="63.5" cy="63.5" r="63.5" fill="#FED731"/>
<path fill-rule="evenodd" clip-rule="evenodd" d="M59.89 60.14C59.03 61.5 58.6 62.64 58.6 63.56C58.6 64.72 59.32 65.3 60.76 65.3C61.48 65.3 61.98 65.56 62.26 66.08C62.54 66.6 62.68 67.2 62.68 67.88C62.68 68.72 62.33 69.46 61.63 70.1C60.93 70.74 60.12 71.06 59.2 71.06C57.8 71.06 56.75 70.63 56.05 69.77C55.35 68.91 55 67.68 55 66.08C55 64.08 55.68 62.19 57.04 60.41C58.4 58.63 59.92 57.16 61.6 56L62.74 56.66C61.7 57.62 60.75 58.78 59.89 60.14ZM69.85 60.14C68.99 61.5 68.56 62.64 68.56 63.56C68.56 64.72 69.28 65.3 70.72 65.3C71.44 65.3 71.94 65.56 72.22 66.08C72.5 66.6 72.64 67.2 72.64 67.88C72.64 68.72 72.29 69.46 71.59 70.1C70.89 70.74 70.08 71.06 69.16 71.06C67.76 71.06 66.71 70.63 66.01 69.77C65.31 68.91 64.96 67.68 64.96 66.08C64.96 64.08 65.64 62.19 67 60.41C68.36 58.63 69.88 57.16 71.56 56L72.7 56.66C71.66 57.62 70.71 58.78 69.85 60.14Z" fill="#141201"/>
</svg>
