<svg width="42" height="42" viewBox="0 0 42 42" fill="none" xmlns="http://www.w3.org/2000/svg">
<mask id="path-1-inside-1" fill="white">
<path d="M6.78269 39.6113H0.550418C0.246367 39.6113 0 39.3649 0 39.0609V2.93714C0 2.63309 0.246367 2.38672 0.550418 2.38672H6.78269C7.08675 2.38672 7.33311 2.63309 7.33311 2.93714V5.58795H8.26442V3.06571C8.26442 2.76166 8.51079 2.5153 8.81484 2.5153H41.4494C41.7534 2.5153 41.9998 2.76166 41.9998 3.06571V22.8271C41.9998 23.1311 41.7534 23.3775 41.4494 23.3775H8.81506C8.51101 23.3775 8.26464 23.1311 8.26464 22.8271V20.3048H7.33333V39.0609C7.33311 39.3649 7.08675 39.6113 6.78269 39.6113ZM1.10084 38.5105H6.23228V3.48756H1.10084V38.5105ZM9.36548 22.2766H40.8992V3.61613H9.36548V22.2766ZM7.33311 19.204H8.26442V17.1888H7.33311V19.204ZM7.33311 16.0877H8.26442V9.80482H7.33311V16.0877ZM7.33311 8.70398H8.26442V6.68879H7.33311V8.70398ZM37.7686 20.3724H12.4958C12.1918 20.3724 11.9454 20.126 11.9454 19.822V6.07056C11.9454 5.76651 12.1918 5.52014 12.4958 5.52014H37.7688C38.0729 5.52014 38.3192 5.76651 38.3192 6.07056V19.822C38.319 20.126 38.0727 20.3724 37.7686 20.3724ZM13.0462 19.2716H37.2184V6.62098H13.0462V19.2716ZM18.5918 16.3121C18.4509 16.3121 18.31 16.2584 18.2026 16.1509L16.5614 14.5098V15.7619C16.5614 16.0659 16.3151 16.3123 16.011 16.3123C15.707 16.3123 15.4606 16.0659 15.4606 15.7619V13.182C15.4606 13.1813 15.4606 13.1804 15.4606 13.1798V10.6945C15.4606 10.3905 15.707 10.1441 16.011 10.1441C16.1779 10.1441 16.3276 10.2183 16.4284 10.3356C16.6689 10.213 16.9408 10.1441 17.2285 10.1441C18.2032 10.1441 18.9963 10.9371 18.9963 11.9118C18.9963 12.8669 18.2349 13.6476 17.2873 13.6787L18.9808 15.3722C19.1959 15.5873 19.1959 15.9356 18.9808 16.1505C18.8736 16.2584 18.7327 16.3121 18.5918 16.3121ZM16.5616 11.9118C16.5616 12.2795 16.8609 12.5787 17.2288 12.5787C17.5967 12.5787 17.8956 12.2795 17.8956 11.9118C17.8956 11.5441 17.5964 11.2449 17.2288 11.2449C16.8611 11.2449 16.5616 11.5441 16.5616 11.9118ZM29.1704 16.1111C28.9958 16.1111 28.8243 16.0283 28.7173 15.8739L26.3395 12.4402V15.5362C26.3395 15.8403 26.0931 16.0866 25.7891 16.0866C25.485 16.0866 25.2387 15.8403 25.2387 15.5362V10.7617C25.2387 10.5529 25.3549 10.3713 25.5264 10.278C25.7759 10.1128 26.1116 10.1773 26.2823 10.4239L28.6601 13.8577V10.7617C28.6601 10.4576 28.9064 10.2112 29.2105 10.2112C29.5145 10.2112 29.7609 10.4576 29.7609 10.7617V15.5362C29.7609 15.7456 29.644 15.9274 29.4718 16.0206C29.3791 16.0818 29.2741 16.1111 29.1704 16.1111ZM32.8159 16.0866C32.5119 16.0866 32.2655 15.8403 32.2655 15.5362V11.3121H31.1052C30.8012 11.3121 30.5548 11.0657 30.5548 10.7617C30.5548 10.4576 30.8012 10.2112 31.1052 10.2112H34.5264C34.8305 10.2112 35.0768 10.4576 35.0768 10.7617C35.0768 11.0657 34.8305 11.3121 34.5264 11.3121H33.3661V15.5362C33.3664 15.8403 33.12 16.0866 32.8159 16.0866ZM23.8168 16.0866H21.1048C20.8007 16.0866 20.5544 15.8403 20.5544 15.5362V10.7617C20.5544 10.7617 20.5544 10.7617 20.5544 10.7614C20.5544 10.4574 20.8007 10.211 21.1048 10.211H23.8168C24.1209 10.211 24.3672 10.4574 24.3672 10.7614C24.3672 11.0655 24.1209 11.3119 23.8168 11.3119H21.6552V12.6657H22.9128C23.2169 12.6657 23.4632 12.912 23.4632 13.2161C23.4632 13.5201 23.2169 13.7665 22.9128 13.7665H21.6552V14.9858H23.8168C24.1209 14.9858 24.3672 15.2322 24.3672 15.5362C24.3672 15.8403 24.1209 16.0866 23.8168 16.0866Z"/>
</mask>
<path d="M6.78269 39.6113H0.550418C0.246367 39.6113 0 39.3649 0 39.0609V2.93714C0 2.63309 0.246367 2.38672 0.550418 2.38672H6.78269C7.08675 2.38672 7.33311 2.63309 7.33311 2.93714V5.58795H8.26442V3.06571C8.26442 2.76166 8.51079 2.5153 8.81484 2.5153H41.4494C41.7534 2.5153 41.9998 2.76166 41.9998 3.06571V22.8271C41.9998 23.1311 41.7534 23.3775 41.4494 23.3775H8.81506C8.51101 23.3775 8.26464 23.1311 8.26464 22.8271V20.3048H7.33333V39.0609C7.33311 39.3649 7.08675 39.6113 6.78269 39.6113ZM1.10084 38.5105H6.23228V3.48756H1.10084V38.5105ZM9.36548 22.2766H40.8992V3.61613H9.36548V22.2766ZM7.33311 19.204H8.26442V17.1888H7.33311V19.204ZM7.33311 16.0877H8.26442V9.80482H7.33311V16.0877ZM7.33311 8.70398H8.26442V6.68879H7.33311V8.70398ZM37.7686 20.3724H12.4958C12.1918 20.3724 11.9454 20.126 11.9454 19.822V6.07056C11.9454 5.76651 12.1918 5.52014 12.4958 5.52014H37.7688C38.0729 5.52014 38.3192 5.76651 38.3192 6.07056V19.822C38.319 20.126 38.0727 20.3724 37.7686 20.3724ZM13.0462 19.2716H37.2184V6.62098H13.0462V19.2716ZM18.5918 16.3121C18.4509 16.3121 18.31 16.2584 18.2026 16.1509L16.5614 14.5098V15.7619C16.5614 16.0659 16.3151 16.3123 16.011 16.3123C15.707 16.3123 15.4606 16.0659 15.4606 15.7619V13.182C15.4606 13.1813 15.4606 13.1804 15.4606 13.1798V10.6945C15.4606 10.3905 15.707 10.1441 16.011 10.1441C16.1779 10.1441 16.3276 10.2183 16.4284 10.3356C16.6689 10.213 16.9408 10.1441 17.2285 10.1441C18.2032 10.1441 18.9963 10.9371 18.9963 11.9118C18.9963 12.8669 18.2349 13.6476 17.2873 13.6787L18.9808 15.3722C19.1959 15.5873 19.1959 15.9356 18.9808 16.1505C18.8736 16.2584 18.7327 16.3121 18.5918 16.3121ZM16.5616 11.9118C16.5616 12.2795 16.8609 12.5787 17.2288 12.5787C17.5967 12.5787 17.8956 12.2795 17.8956 11.9118C17.8956 11.5441 17.5964 11.2449 17.2288 11.2449C16.8611 11.2449 16.5616 11.5441 16.5616 11.9118ZM29.1704 16.1111C28.9958 16.1111 28.8243 16.0283 28.7173 15.8739L26.3395 12.4402V15.5362C26.3395 15.8403 26.0931 16.0866 25.7891 16.0866C25.485 16.0866 25.2387 15.8403 25.2387 15.5362V10.7617C25.2387 10.5529 25.3549 10.3713 25.5264 10.278C25.7759 10.1128 26.1116 10.1773 26.2823 10.4239L28.6601 13.8577V10.7617C28.6601 10.4576 28.9064 10.2112 29.2105 10.2112C29.5145 10.2112 29.7609 10.4576 29.7609 10.7617V15.5362C29.7609 15.7456 29.644 15.9274 29.4718 16.0206C29.3791 16.0818 29.2741 16.1111 29.1704 16.1111ZM32.8159 16.0866C32.5119 16.0866 32.2655 15.8403 32.2655 15.5362V11.3121H31.1052C30.8012 11.3121 30.5548 11.0657 30.5548 10.7617C30.5548 10.4576 30.8012 10.2112 31.1052 10.2112H34.5264C34.8305 10.2112 35.0768 10.4576 35.0768 10.7617C35.0768 11.0657 34.8305 11.3121 34.5264 11.3121H33.3661V15.5362C33.3664 15.8403 33.12 16.0866 32.8159 16.0866ZM23.8168 16.0866H21.1048C20.8007 16.0866 20.5544 15.8403 20.5544 15.5362V10.7617C20.5544 10.7617 20.5544 10.7617 20.5544 10.7614C20.5544 10.4574 20.8007 10.211 21.1048 10.211H23.8168C24.1209 10.211 24.3672 10.4574 24.3672 10.7614C24.3672 11.0655 24.1209 11.3119 23.8168 11.3119H21.6552V12.6657H22.9128C23.2169 12.6657 23.4632 12.912 23.4632 13.2161C23.4632 13.5201 23.2169 13.7665 22.9128 13.7665H21.6552V14.9858H23.8168C24.1209 14.9858 24.3672 15.2322 24.3672 15.5362C24.3672 15.8403 24.1209 16.0866 23.8168 16.0866Z" fill="#000002" stroke="#C3C3C3" stroke-width="2" mask="url(#path-1-inside-1)"/>
</svg>
