<svg width="42" height="42" viewBox="0 0 42 42" fill="none" xmlns="http://www.w3.org/2000/svg">
<path d="M40.491 16.9473C40.1564 16.9473 39.8851 17.2185 39.8851 17.5532C39.8851 30.3648 31.4131 40.7876 21 40.7876C10.5868 40.7876 2.11479 30.3648 2.11479 17.5532C2.11479 17.2185 1.84342 16.9473 1.50881 16.9473C1.1742 16.9473 0.902832 17.2185 0.902832 17.5532C0.902832 24.0607 2.97892 30.1837 6.74855 34.7945C10.5472 39.4407 15.6084 41.9996 21 41.9996C26.3915 41.9996 31.4528 39.4407 35.2514 34.7945C39.021 30.1836 41.0971 24.0606 41.0971 17.5532C41.097 17.2185 40.8256 16.9473 40.491 16.9473Z" fill="#C3C3C3"/>
<path d="M16.0607 11.3109C16.0607 11.1503 15.9969 10.9961 15.8832 10.8825C12.7091 7.70845 7.5444 7.70845 4.37061 10.8825C4.25691 10.9962 4.19312 11.1503 4.19312 11.3109C4.19312 11.4716 4.25691 11.6258 4.37061 11.7394C5.95762 13.3264 8.04219 14.1199 10.1269 14.1199C12.2115 14.1199 14.2963 13.3264 15.8832 11.7394C15.9968 11.6258 16.0607 11.4717 16.0607 11.3109ZM11.6295 9.87775C11.6719 10.0039 11.6962 10.1363 11.6962 10.2711C11.6962 10.9584 11.1371 11.5175 10.4498 11.5175C9.76251 11.5175 9.20335 10.9584 9.20335 10.2711C9.20335 10.0929 9.24092 9.92072 9.31177 9.76239C10.0838 9.6716 10.868 9.70984 11.6295 9.87775ZM5.69672 11.3109C6.39315 10.731 7.17795 10.3102 8.00241 10.0461C7.99569 10.1206 7.99128 10.1954 7.99128 10.2711C7.99128 11.6266 9.09417 12.7295 10.4497 12.7295C11.7975 12.7295 12.8951 11.6391 12.9075 10.2941C13.4917 10.5493 14.048 10.8872 14.5568 11.3109C11.999 13.441 8.25461 13.4409 5.69672 11.3109Z" fill="#C3C3C3"/>
<path d="M37.8071 11.3109C37.8071 11.1503 37.7433 10.996 37.6296 10.8824C36.092 9.34488 34.0477 8.49805 31.8732 8.49805C29.6987 8.49805 27.6544 9.34488 26.1169 10.8824C25.8803 11.1191 25.8803 11.5027 26.1169 11.7394C27.6545 13.2769 29.6987 14.1237 31.8732 14.1237C34.0477 14.1237 36.092 13.2769 37.6296 11.7394C37.7432 11.6258 37.8071 11.4716 37.8071 11.3109ZM32.6869 9.75848C32.7596 9.91846 32.7981 10.092 32.7981 10.271C32.7981 10.9583 32.239 11.5175 31.5517 11.5175C30.8644 11.5175 30.3053 10.9583 30.3053 10.271C30.3053 10.1335 30.3299 9.99922 30.3728 9.87208C30.86 9.76509 31.3623 9.71012 31.8731 9.71012C32.1472 9.71001 32.4187 9.7273 32.6869 9.75848ZM31.8731 12.9119C30.2355 12.9119 28.6846 12.3476 27.4425 11.311C27.9468 10.8902 28.5025 10.5487 29.0937 10.2898C29.1039 11.6367 30.2024 12.7295 31.5517 12.7295C32.9073 12.7295 34.0101 11.6267 34.0101 10.2711C34.0101 10.194 34.0054 10.1176 33.9983 10.0415C34.836 10.3104 35.6172 10.7382 36.3037 11.3111C35.0618 12.3474 33.5107 12.9119 31.8731 12.9119Z" fill="#C3C3C3"/>
<path d="M3.30595 4.03595C5.98559 1.35641 10.0073 0.493169 13.552 1.83668C15.4573 2.55879 16.8886 4.27228 17.2874 6.30837C18.147 10.6974 18.1087 15.1405 17.1735 19.5142C17.1683 19.5384 17.1647 19.5629 17.1625 19.5876L17.0128 21.2821C16.9363 22.1477 17.2289 23.0118 17.8156 23.6527C18.4024 24.2936 19.2374 24.6613 20.1063 24.6613H22.5841C22.9187 24.6613 23.1901 24.39 23.1901 24.0553C23.1901 23.7206 22.9187 23.4493 22.5841 23.4493H20.1063C19.5687 23.4493 19.0727 23.231 18.7095 22.8343C18.3465 22.4377 18.1726 21.9244 18.22 21.3888L18.3665 19.731C19.3285 15.208 19.3656 10.6138 18.4768 6.07534C17.998 3.63115 16.2756 1.5728 13.9814 0.703278C9.99199 -0.808696 5.46511 0.162855 2.44898 3.17898C2.21232 3.41564 2.21232 3.79928 2.44898 4.03595C2.68553 4.27261 3.06939 4.27261 3.30595 4.03595Z" fill="#C3C3C3"/>
<path d="M25.0522 4.03598C28.8133 0.274944 34.9327 0.274944 38.6938 4.03598C38.812 4.15431 38.9671 4.21348 39.1222 4.21348C39.2774 4.21348 39.4324 4.15431 39.5507 4.03598C39.7874 3.79932 39.7874 3.41568 39.5507 3.17902C35.3172 -1.05446 28.4288 -1.05446 24.1953 3.17902C23.9587 3.41568 23.9587 3.79932 24.1953 4.03598C24.4318 4.27265 24.8156 4.27265 25.0522 4.03598Z" fill="#C3C3C3"/>
<path d="M26.4762 31.4076C26.695 31.4076 26.9065 31.2887 27.0144 31.0811C27.1688 30.7842 27.0533 30.4183 26.7563 30.2639L22.7292 28.1699C22.5065 28.0541 22.235 28.0876 22.0471 28.2546L20.9999 29.1854L19.9528 28.2546C19.7648 28.0877 19.4934 28.054 19.2707 28.1699L15.2436 30.2639C14.9466 30.4183 14.8311 30.7842 14.9854 31.0811C15.1398 31.378 15.5056 31.4935 15.8026 31.3392L19.4594 29.4376L20.5972 30.449C20.8268 30.6532 21.1729 30.6532 21.4025 30.449L22.5403 29.4376L26.1971 31.3392C26.2865 31.3857 26.382 31.4076 26.4762 31.4076Z" fill="#C3C3C3"/>
<path d="M19.22 33.0352C18.8854 33.0352 18.614 33.3064 18.614 33.6411C18.614 33.9759 18.8854 34.2471 19.22 34.2471H22.6139C22.9485 34.2471 23.2199 33.9759 23.2199 33.6411C23.2199 33.3064 22.9485 33.0352 22.6139 33.0352H19.22Z" fill="#C3C3C3"/>
<path d="M10.8141 22.4042C11.1792 22.4042 11.4752 22.1082 11.4752 21.7431C11.4752 21.378 11.1792 21.082 10.8141 21.082C10.449 21.082 10.1531 21.378 10.1531 21.7431C10.1531 22.1082 10.449 22.4042 10.8141 22.4042Z" fill="#C3C3C3"/>
<path d="M27.6091 18.785C27.9742 18.785 28.2701 18.4891 28.2701 18.124C28.2701 17.7589 27.9742 17.4629 27.6091 17.4629C27.244 17.4629 26.948 17.7589 26.948 18.124C26.948 18.4891 27.244 18.785 27.6091 18.785Z" fill="#C3C3C3"/>
<path d="M9.32684 30.3358C9.69194 30.3358 9.98791 30.0398 9.98791 29.6747C9.98791 29.3096 9.69194 29.0137 9.32684 29.0137C8.96174 29.0137 8.66577 29.3096 8.66577 29.6747C8.66577 30.0398 8.96174 30.3358 9.32684 30.3358Z" fill="#C3C3C3"/>
<path d="M35.2767 24.6699C35.3284 24.4484 35.2518 24.2166 35.0781 24.0696L29.6805 19.499C29.4812 19.3303 29.196 19.3081 28.9731 19.4442C28.7503 19.5803 28.6395 19.8438 28.6986 20.0984L30.2966 26.9885C30.348 27.21 30.5192 27.3841 30.7396 27.4394C30.7884 27.4516 30.8379 27.4576 30.8868 27.4576C31.0593 27.4576 31.2264 27.3839 31.3431 27.2505L32.3353 26.1155L34.0056 28.8518C34.1198 29.0389 34.3192 29.1421 34.5234 29.1421C34.631 29.1421 34.74 29.1135 34.8385 29.0532C35.1242 28.8788 35.2144 28.5059 35.04 28.2202L33.3697 25.4841L34.8328 25.1203C35.0535 25.0652 35.225 24.8913 35.2767 24.6699ZM32.2762 24.5069C32.1559 24.5368 32.0478 24.6029 31.9662 24.6961L31.2098 25.5614L30.2921 21.6049L33.3917 24.2296L32.2762 24.5069Z" fill="#C3C3C3"/>
</svg>
