<svg width="15" height="15" viewBox="0 0 15 15" fill="none" xmlns="http://www.w3.org/2000/svg">
<path d="M13.0931 3.31926C13.2197 3.43009 13.3622 3.47759 13.5206 3.47759C13.6947 3.47759 13.8689 3.41425 13.9956 3.27175C14.2331 3.01842 14.2173 2.60676 13.9481 2.36926L13.1247 1.62506L12.3014 0.880904C12.0481 0.643404 11.6364 0.659245 11.4148 0.928412C11.1931 1.19758 11.1931 1.5934 11.4623 1.8309L11.8106 2.14757L11.1773 2.86007C10.4489 2.32174 9.60975 1.92591 8.69142 1.72008C8.67558 1.51424 8.59642 1.29258 8.43808 1.08674C8.27975 0.865078 7.94725 0.611753 7.34558 0.580086C7.32975 0.580086 7.32975 0.580086 7.31392 0.580086C6.75975 0.580086 6.44309 0.817594 6.26892 1.02343C6.07892 1.24509 5.99975 1.51424 5.96808 1.72008C3.05475 2.33758 0.869752 4.95006 0.869752 8.03756C0.869752 11.6001 3.76725 14.5134 7.32975 14.5134C10.8922 14.5134 13.7898 11.6159 13.7898 8.03756C13.7898 6.37506 13.1564 4.85508 12.1273 3.69925L12.7606 2.98675L13.0931 3.31926ZM7.31392 13.2309C4.44808 13.2309 2.12058 10.9034 2.12058 8.03756C2.12058 5.17173 4.44808 2.84426 7.31392 2.84426C10.1797 2.84426 12.5072 5.17173 12.5072 8.03756C12.5072 10.9034 10.1797 13.2309 7.31392 13.2309ZM8.42225 8.03756C8.42225 8.63923 7.91558 9.13009 7.32975 9.13009C6.72808 9.13009 6.25308 8.63923 6.25308 8.03756C6.25308 7.6734 6.41142 7.34092 6.72808 7.15092V4.58593C6.72808 4.23759 7.01308 3.95259 7.36142 3.95259C7.70975 3.95259 7.99475 4.23759 7.99475 4.58593V7.15092C8.29558 7.34092 8.42225 7.6734 8.42225 8.03756Z" fill="#333333"/>
</svg>
